<?xml version="1.0" encoding="UTF-8" standalone="no"?>
<svg
   xmlns:dc="http://purl.org/dc/elements/1.1/"
   xmlns:cc="http://creativecommons.org/ns#"
   xmlns:rdf="http://www.w3.org/1999/02/22-rdf-syntax-ns#"
   xmlns:svg="http://www.w3.org/2000/svg"
   xmlns="http://www.w3.org/2000/svg"
   xmlns:sodipodi="http://sodipodi.sourceforge.net/DTD/sodipodi-0.dtd"
   xmlns:inkscape="http://www.inkscape.org/namespaces/inkscape"
   id="svg8"
   version="1.1"
   viewBox="0 0 29.194233 31.4079"
   height="31.4079mm"
   width="29.194233mm"
   sodipodi:docname="skytemple-debugger-debug-symbolic.svg"
   inkscape:version="0.92.5 (2060ec1f9f, 2020-04-08)">
  <sodipodi:namedview
     pagecolor="#ffffff"
     bordercolor="#666666"
     borderopacity="1"
     objecttolerance="10"
     gridtolerance="10"
     guidetolerance="10"
     inkscape:pageopacity="0"
     inkscape:pageshadow="2"
     inkscape:window-width="1787"
     inkscape:window-height="890"
     id="namedview7"
     showgrid="false"
     inkscape:zoom="2.3067442"
     inkscape:cx="-118.92303"
     inkscape:cy="55.31618"
     inkscape:window-x="0"
     inkscape:window-y="28"
     inkscape:window-maximized="0"
     inkscape:current-layer="svg8"
     fit-margin-top="0"
     fit-margin-left="0"
     fit-margin-right="0"
     fit-margin-bottom="0" />
  <defs
     id="defs2" />
  <metadata
     id="metadata5">
    <rdf:RDF>
      <cc:Work
         rdf:about="">
        <dc:format>image/svg+xml</dc:format>
        <dc:type
           rdf:resource="http://purl.org/dc/dcmitype/StillImage" />
        <dc:title></dc:title>
      </cc:Work>
    </rdf:RDF>
  </metadata>
  <g
     transform="matrix(0.82044377,0,0,0.82044377,-0.16344462,-0.22089366)"
     id="layer1">
    <path
       id="path21"
       d="m 3.6300868,38.301976 c -0.113528,-0.295867 -0.111339,-0.511345 0.02799,-2.740904 0.125389,-2.006763 0.286534,-2.383828 1.138929,-2.665144 1.389121,-0.458451 3.610387,0.393016 3.610387,1.383951 0,0.49943 -0.255147,0.65095 -1.439804,0.855023 -0.570249,0.09824 -1.087168,0.234311 -1.148709,0.30239 -0.06153,0.06808 -0.270549,0.609483 -0.464467,1.203121 -0.193919,0.593635 -0.498309,1.264606 -0.676426,1.491047 -0.358331,0.455542 -0.904421,0.544403 -1.047896,0.17051 z m 27.6840342,-0.02285 c -0.375508,-0.263015 -0.991818,-1.477457 -1.214946,-2.394055 -0.135898,-0.55825 -0.336977,-0.720734 -0.897737,-0.725418 -0.877651,-0.0074 -1.575051,-0.316226 -1.682749,-0.74532 -0.135175,-0.538599 0.113661,-0.826749 1.118568,-1.295255 0.911512,-0.424963 1.782368,-0.480447 2.543987,-0.162095 0.854923,0.357363 0.932538,0.564959 1.074861,2.874968 0.164571,2.671002 -0.0025,3.105167 -0.941984,2.447166 z M 16.467097,35.799468 c -2.037228,-0.737189 -6.5961552,-3.012995 -7.2086352,-3.598537 -0.322424,-0.308242 -0.04436,-0.904008 0.580082,-1.242868 0.3210762,-0.174242 0.6925782,-0.384795 0.8255632,-0.46791 0.132985,-0.08312 0.858359,-0.506557 1.611942,-0.940976 0.753584,-0.434422 2.127074,-1.272376 3.0522,-1.86212 0.925126,-0.589744 1.725594,-1.072262 1.778817,-1.072262 0.05323,0 0.08371,-0.560272 0.06778,-1.245048 l -0.029,-1.245048 -0.540871,-0.1434 c -0.299336,-0.07935 -2.304485,-0.09594 -4.490131,-0.03711 -4.2976842,0.115679 -5.7500672,0.11665 -6.1301862,0.0042 -0.521482,-0.154385 -0.615486,-0.915079 -0.310671,-2.514001 0.451065,-2.36608 0.858725,-3.366934 2.20495,-5.413412 1.65611,-2.517553 4.8574102,-4.444289 8.3866582,-5.047602 1.577425,-0.269654 1.727056,-0.269504 3.304481,0.0034 1.499915,0.259446 3.374847,0.884038 4.695257,1.564127 2.238433,1.152921 4.718182,4.381857 5.547303,7.22327 0.103475,0.354626 0.33471,1.142045 0.513843,1.749817 0.417312,1.41588 0.409758,1.741881 -0.05038,2.174153 -0.335853,0.315517 -0.538383,0.351182 -1.894033,0.333537 -4.813078,-0.06266 -9.47968,-0.05573 -9.546155,0.01409 -0.122838,0.129121 -0.231295,2.579106 -0.114156,2.579106 0.109473,0 2.140352,1.243022 2.9664,1.815618 0.617649,0.42814 3.124602,1.870893 4.341121,2.498317 0.603501,0.311258 0.896455,0.935538 0.581332,1.238811 -0.440966,0.424386 -2.307615,1.399861 -6.194264,3.237001 -1.458911,0.689598 -2.772041,0.820911 -3.949258,0.394927 z M 4.8593508,30.765544 c -0.178373,-0.292541 -0.319145,-0.808606 -0.318802,-1.168658 9.67e-4,-1.014453 0.312021,-2.674487 0.640122,-3.416213 0.268653,-0.607332 0.389214,-0.702832 1.158805,-0.917939 1.213278,-0.339123 3.309462,-0.552767 6.6014422,-0.672823 2.982897,-0.108787 3.526179,-0.0233 3.526179,0.554825 0,0.39261 -0.378561,0.702905 -1.531344,1.2552 -1.192311,0.571232 -3.929698,2.037556 -6.2865732,3.367497 -1.856039,1.047329 -2.868349,1.521992 -3.245937,1.521992 -0.123466,0 -0.368214,-0.235746 -0.543892,-0.523881 z m 2.059127,-1.000087 c 0.717302,-0.603568 2.618339,-1.689331 5.3679172,-3.065843 l 2.488163,-1.245644 -2.014926,0.103209 c -1.10821,0.05675 -2.8491072,0.142676 -3.8686612,0.190939 -2.697728,0.127673 -2.782741,0.159296 -3.006916,1.118503 -0.261599,1.119334 -0.271139,3.08453 -0.01542,3.187691 0.388951,0.156955 0.583808,0.103342 1.049898,-0.288853 z m 22.0411692,0.937844 c -0.620598,-0.316326 -1.610785,-0.856878 -2.200413,-1.201225 -1.310392,-0.765277 -2.72446,-1.521389 -5.053325,-2.70205 -1.627876,-0.825281 -2.337316,-1.325839 -2.337316,-1.649129 0,-0.06877 0.121809,-0.246823 0.270684,-0.395702 0.241572,-0.241572 0.583974,-0.259503 3.183586,-0.166721 4.936041,0.176164 7.24818,0.554229 7.702999,1.259559 0.336937,0.52252 0.609316,1.737992 0.708131,3.159979 0.07362,1.059589 0.03897,1.307575 -0.245672,1.757537 -0.182276,0.288136 -0.459403,0.521411 -0.615855,0.518391 -0.15646,-0.003 -0.792223,-0.264306 -1.412819,-0.580634 z m 0.953981,-0.640077 c 0.310831,-0.119278 0.347016,-1.523337 0.07893,-3.062795 l -0.176051,-1.010924 -0.831419,-0.08543 c -0.797841,-0.08196 -1.546297,-0.127959 -5.828437,-0.358127 -1.063882,-0.05719 -1.898062,-0.06523 -1.853734,-0.0179 0.04432,0.04737 1.458808,0.784364 3.143286,1.637774 1.68448,0.853413 3.496489,1.876453 4.026684,2.273423 1.023264,0.766143 1.045275,0.775676 1.440735,0.623924 z M 0.3694648,28.65597 c -0.50112899,-0.603821 0.558212,-2.376932 1.574194,-2.634864 0.435422,-0.110539 1.402856,0.184485 1.829399,0.557898 0.283744,0.248401 0.380073,1.102878 0.158725,1.407991 -0.133652,0.184237 -1.91603,0.718519 -2.787118,0.835463 -0.390194,0.05237 -0.637665,-8.08e-4 -0.7752,-0.166494 z M 33.956665,28.7084 c -0.177307,-0.07772 -0.730895,-0.253674 -1.23018,-0.391034 -0.690823,-0.190063 -0.930225,-0.335523 -1.001641,-0.608617 -0.179211,-0.685286 0.06171,-1.107991 0.815631,-1.431163 0.882266,-0.378184 1.166405,-0.383041 1.901483,-0.0325 0.895966,0.427257 1.59452,2.282129 0.952271,2.528581 -0.353097,0.135498 -1.051851,0.10378 -1.437564,-0.06527 z M 0.2954228,21.189398 c -0.29157299,-0.291575 0.126455,-2.938843 0.626767,-3.969188 0.524342,-1.079825 1.262541,-0.994508 2.653631,0.306694 1.587108,1.484553 1.293749,3.039364 -0.361273,1.914749 -0.819,-0.556523 -1.167435,-0.514636 -1.6521,0.198614 -0.224838,0.330879 -0.408797,0.680922 -0.408797,0.777873 0,0.249427 -0.726857,0.902629 -0.858228,0.771258 z M 35.056873,20.848263 c -0.182714,-0.247135 -0.489656,-0.757956 -0.68209,-1.135158 -0.362384,-0.71033 -0.377202,-0.712481 -1.143491,-0.165865 -0.268931,0.191835 -0.644283,0.275708 -1.128358,0.252131 l -0.725374,-0.03534 0.01447,-0.692983 c 0.01237,-0.592016 0.118078,-0.7994 0.725374,-1.423378 0.776211,-0.797515 1.402595,-1.18812 1.905311,-1.18812 0.867534,0 1.86115,2.035816 1.751658,3.58897 -0.08282,1.174714 -0.278789,1.393147 -0.71752,0.799732 z M 5.2172138,16.529508 c -0.451287,-0.316094 -1.000873,-1.373101 -1.000873,-1.924954 0,-0.634902 0.734948,-1.234725 1.439949,-1.175206 0.514667,0.04345 0.612314,0.134222 1.005566,0.934688 0.559046,1.137954 0.557199,1.374329 -0.01523,1.94673 -0.530448,0.530449 -0.903016,0.587462 -1.429438,0.218742 z m 24.2260162,0.05774 c -0.829634,-0.475794 -0.937444,-1.268843 -0.316534,-2.328351 0.633775,-1.081452 1.732229,-1.162633 2.335858,-0.172624 0.535482,0.878236 0.343677,1.560188 -0.643703,2.288656 -0.606145,0.447199 -0.889752,0.490973 -1.375621,0.212327 z M 2.3345538,13.445907 c -0.859279,-0.16735 -1.146302,-1.906432 -0.628526,-3.8082458 0.307252,-1.1285514 1.43916,-3.5151604 1.828288,-3.8549154 0.725275,-0.63325 2.691941,-0.837558 3.744715,-0.389021 0.770438,0.328248 1.61194,1.188176 1.61194,1.647236 0,0.974404 -0.607594,2.6889764 -1.336399,3.7711902 -0.669754,0.994528 -1.059902,1.302867 -2.665221,2.106352 -1.19376,0.597497 -1.679762,0.697825 -2.554797,0.527404 z M 31.685588,13.275568 c -0.362523,-0.154918 -1.127845,-0.55754 -1.700714,-0.894702 -1.407223,-0.828219 -2.255257,-2.113718 -2.81753,-4.2709682 -0.30231,-1.159865 -0.292199,-1.231529 0.263009,-1.863876 0.87943,-1.001615 2.378878,-1.347963 3.941566,-0.910438 0.873936,0.244687 1.260202,0.688695 2.013864,2.314897 1.061037,2.2894414 1.338461,4.5149552 0.67252,5.3949992 -0.369278,0.488001 -1.510323,0.598658 -2.372715,0.2301 z m -19.140882,-2.72647 c -0.157221,-0.157241 -0.124037,-1.3178642 0.0606,-2.1183382 0.211526,-0.917102 1.040192,-2.599126 1.637468,-3.323725 0.90543,-1.098444 3.032104,-1.734454 4.663596,-1.394708 1.382246,0.287842 2.228203,0.793117 2.990244,1.786019 1.179545,1.536888 1.955754,3.9876814 1.520532,4.8009032 l -0.181325,0.338814 -0.845548,-0.38614 c -2.857533,-1.3049632 -5.844224,-1.3258712 -8.645462,-0.06052 -1.175615,0.53104 -1.060928,0.496858 -1.200094,0.357693 z m 3.587636,-3.6949202 c 0.521534,-0.438841 0.625724,-0.83918 0.302517,-1.162387 -0.270699,-0.2707 -0.360754,-0.248846 -0.922557,0.223881 -0.282538,0.23774 -0.495952,0.572998 -0.495952,0.779105 0,0.706095 0.398618,0.763031 1.115992,0.159411 z m 4.820836,0.04025 c 0.05822,-0.305279 -0.473629,-0.982354 -0.990411,-1.260861 -0.35376,-0.19065 -0.755367,0.08456 -0.755367,0.517623 0,0.379822 0.956492,1.135955 1.368502,1.081837 0.176413,-0.02317 0.346182,-0.175536 0.377276,-0.338599 z M 11.794163,6.1263128 C 11.396713,5.8593818 10.82153,5.2822988 10.515978,4.8439058 L 9.9604298,4.0468268 10.405999,3.1203528 C 10.651063,2.610792 11.276846,1.7608342 11.796625,1.2315577 L 12.741678,0.26923681 13.3418,0.75495638 c 0.704262,0.57000722 0.718562,0.74987092 0.07292,0.91717372 -0.412315,0.1068413 -0.489091,0.2184563 -0.583549,0.8483441 -0.06011,0.4008357 -0.0285,1.0441116 0.07067,1.4379246 0.16994,0.674872 -0.0042,2.195851 -0.290633,2.539886 -0.05192,0.06235 -0.419595,-0.105037 -0.817045,-0.371972 z m 11.490626,0.295526 c -0.08113,-0.108959 -0.273468,-0.489448 -0.427415,-0.845534 -0.256457,-0.593189 -0.259021,-0.697413 -0.03061,-1.244077 0.283512,-0.678542 0.323789,-1.6796405 0.09209,-2.2890495 -0.111455,-0.2931524 -0.275638,-0.4134791 -0.564179,-0.4134791 -0.545932,0 -0.526781,-0.3999121 0.03631,-0.75823312 0.243807,-0.1551462 0.499243,-0.3562954 0.56764,-0.4470001 0.183438,-0.24327337 1.972217,1.70374422 2.472746,2.69149022 0.420212,0.8292516 0.421166,0.8394206 0.129501,1.3810226 -0.311562,0.578533 -1.388187,1.726726 -1.8517,1.974792 -0.185171,0.0991 -0.325714,0.08257 -0.424376,-0.04994 z M 2.9865578,4.9250148 c -0.341739,-0.521558 -0.476437,-1.8507973 -0.233544,-2.3046489 0.204607,-0.3823101 0.691242,-0.457221 0.938044,-0.1443989 0.08743,0.1108204 0.205378,0.7246995 0.2621,1.3641738 0.09266,1.044742 0.07143,1.179639 -0.209233,1.329852 -0.42871,0.229439 -0.451307,0.222129 -0.757367,-0.244978 z M 31.973977,5.1437298 C 31.582964,4.7527158 31.844704,2.6894472 32.33718,2.2807352 32.506529,2.1401936 32.652285,2.137136 32.8986,2.2689692 c 0.282336,0.1511005 0.332692,0.332492 0.332692,1.1984036 0,1.391518 -0.660938,2.272742 -1.257315,1.676367 z M 7.0421898,4.8031618 c -0.218957,-0.334168 -0.2209,-0.46779 -0.01675,-1.146329 0.233686,-0.7764823 0.650456,-1.382359 0.950896,-1.382359 0.09011,0 0.289891,0.1140931 0.443979,0.2535415 0.208043,0.1882774 0.247832,0.3646236 0.154575,0.6850753 -0.271483,0.9328332 -0.638969,1.6226352 -0.954377,1.7914362 -0.276701,0.148085 -0.370899,0.115289 -0.578378,-0.201365 z M 27.924752,4.6804978 c -0.875768,-0.958843 -0.983976,-2.4060246 -0.179897,-2.4060246 0.456,0 0.775617,0.4037574 1.049388,1.3256426 0.219902,0.740495 0.219935,0.866261 3.21e-4,1.201461 -0.134946,0.205916 -0.284015,0.374392 -0.331295,0.374392 -0.04729,0 -0.289613,-0.222962 -0.538511,-0.495471 z M 5.0895518,4.6351078 c -0.04611,-0.120159 -0.06197,-0.674782 -0.03524,-1.232495 0.05401,-1.1269816 0.35725,-1.5301102 0.894866,-1.1896333 0.347407,0.2200164 0.395824,1.5333513 0.08101,2.1973143 -0.223345,0.471043 -0.793826,0.607389 -0.940636,0.224814 z m 24.7845652,-0.06362 c -0.07954,-0.15515 -0.187093,-0.659582 -0.238991,-1.120963 -0.07431,-0.6606239 -0.03393,-0.9135062 0.190063,-1.1901156 0.239098,-0.2952728 0.339371,-0.3218354 0.629254,-0.1666951 0.465703,0.2492366 0.704115,1.154617 0.482274,1.8314527 -0.09472,0.288983 -0.195209,0.616096 -0.223312,0.726917 -0.07623,0.300603 -0.673231,0.243273 -0.839286,-0.0806 z"
       style="fill:#444444;fill-opacity:1;stroke-width:0.16119418"
       inkscape:connector-curvature="0" />
  </g>
</svg>
